<svg xmlns="http://www.w3.org/2000/svg" viewBox="0 0 42.42 41.797">
  <g id="Group_545" data-name="Group 545" transform="translate(-0.039)">
    <path id="Path_212" data-name="Path 212" d="M58.238,35.963a2.775,2.775,0,0,1-1.3-.323l-8.3-4.367a.579.579,0,0,0-.522,0l-8.3,4.367a2.8,2.8,0,0,1-4.06-2.95l1.583-9.248a.58.58,0,0,0-.157-.5L30.453,16.4a2.8,2.8,0,0,1,1.558-4.773l9.281-1.351a.559.559,0,0,0,.423-.307l4.151-8.411a2.8,2.8,0,0,1,5.013,0l4.151,8.411a.559.559,0,0,0,.423.307l9.281,1.351A2.8,2.8,0,0,1,66.292,16.4l-6.72,6.546a.556.556,0,0,0-.157.5L61,32.69a2.782,2.782,0,0,1-1.11,2.735A2.82,2.82,0,0,1,58.238,35.963Zm-9.869-6.994a2.775,2.775,0,0,1,1.3.323l8.3,4.367a.543.543,0,0,0,.588-.041.554.554,0,0,0,.224-.547L57.2,23.823a2.808,2.808,0,0,1,.8-2.478l6.72-6.546a.559.559,0,0,0-.315-.953L55.13,12.5a2.789,2.789,0,0,1-2.1-1.533L48.874,2.552h0a.563.563,0,0,0-1.011,0l-4.151,8.411a2.789,2.789,0,0,1-2.1,1.533l-9.281,1.342a.555.555,0,0,0-.456.381.541.541,0,0,0,.141.572l6.72,6.546a2.785,2.785,0,0,1,.8,2.478l-1.583,9.248a.554.554,0,0,0,.224.547.546.546,0,0,0,.588.041l8.3-4.367A2.869,2.869,0,0,1,48.369,28.969Z" transform="translate(-27.119)"/>
    <path id="Path_213" data-name="Path 213" d="M379.143,20.1a1.069,1.069,0,0,1-.655-.215,1.124,1.124,0,0,1-.249-1.566l1.185-1.632a1.121,1.121,0,0,1,1.815,1.318l-1.185,1.632A1.142,1.142,0,0,1,379.143,20.1Z" transform="translate(-346.666 -14.882)"/>
    <path id="Path_214" data-name="Path 214" d="M94.928,20a1.093,1.093,0,0,1-.9-.464L92.84,17.906a1.121,1.121,0,1,1,1.815-1.318l1.185,1.632a1.125,1.125,0,0,1-.249,1.566A1.093,1.093,0,0,1,94.928,20Z" transform="translate(-84.915 -14.791)"/>
    <path id="Path_215" data-name="Path 215" d="M1.155,296.6a1.116,1.116,0,0,1-.34-2.179l1.922-.621a1.119,1.119,0,1,1,.688,2.13l-1.922.621A1.263,1.263,0,0,1,1.155,296.6Z" transform="translate(0 -269.399)"/>
    <path id="Path_216" data-name="Path 216" d="M243.619,457.259a1.114,1.114,0,0,1-1.119-1.119v-2.022a1.119,1.119,0,0,1,2.237,0v2.022A1.119,1.119,0,0,1,243.619,457.259Z" transform="translate(-222.369 -415.463)"/>
    <path id="Path_217" data-name="Path 217" d="M464.786,296.6a1.024,1.024,0,0,1-.348-.058l-1.922-.621a1.119,1.119,0,0,1,.688-2.13l1.922.621a1.121,1.121,0,0,1-.34,2.188Z" transform="translate(-423.442 -269.399)"/>
  </g>
</svg>
