<svg id="Group_540" data-name="Group 540" xmlns="http://www.w3.org/2000/svg" viewBox="0 0 52.132 40.718">
  <path id="Path_196" data-name="Path 196" d="M272.5.5V20.762l5.162-4.042h19.224V.5Zm22.859,14.693H277.133l-3.1,2.383V2.027h21.321Z" transform="translate(-244.754 -0.449)"/>
  <path id="Path_197" data-name="Path 197" d="M0,217.12H19.315l5.06,4.042V200.9H0Zm1.527-14.693H22.849v15.548l-2.994-2.383H1.527Z" transform="translate(0 -180.444)"/>
  <path id="Path_198" data-name="Path 198" d="M53.926,15.334l-2.047-2.047L50.8,14.367l3.808,3.808,3.808-3.808-1.079-1.079L55.5,15.12A15.571,15.571,0,0,1,70.93,1.527V0A17.121,17.121,0,0,0,53.926,15.334Z" transform="translate(-45.628)"/>
  <path id="Path_199" data-name="Path 199" d="M277.024,225.018,278.1,226.1l1.833-1.833A15.581,15.581,0,0,1,264.5,237.848v1.527a17.1,17.1,0,0,0,16.994-15.334l2.047,2.047,1.079-1.079-3.808-3.808Z" transform="translate(-237.568 -198.677)"/>
  <rect id="Rectangle_226" data-name="Rectangle 226" width="13.064" height="1.527" transform="translate(7.341 24.539)"/>
  <rect id="Rectangle_227" data-name="Rectangle 227" width="13.064" height="1.527" transform="translate(4.083 27.797)"/>
  <rect id="Rectangle_228" data-name="Rectangle 228" width="9.795" height="1.527" transform="translate(4.083 31.065)"/>
  <rect id="Rectangle_229" data-name="Rectangle 229" width="1.629" height="1.527" transform="translate(18.776 27.797)"/>
  <rect id="Rectangle_230" data-name="Rectangle 230" width="1.629" height="1.527" transform="translate(4.083 24.539)"/>
  <rect id="Rectangle_231" data-name="Rectangle 231" width="9.795" height="1.527" transform="translate(38.356 4.134)"/>
  <rect id="Rectangle_232" data-name="Rectangle 232" width="16.322" height="1.527" transform="translate(31.829 7.392)"/>
  <rect id="Rectangle_233" data-name="Rectangle 233" width="8.166" height="1.527" transform="translate(35.098 10.661)"/>
  <rect id="Rectangle_234" data-name="Rectangle 234" width="1.629" height="1.527" transform="translate(31.829 10.661)"/>
  <rect id="Rectangle_235" data-name="Rectangle 235" width="1.629" height="1.527" transform="translate(31.829 4.134)"/>
  <rect id="Rectangle_236" data-name="Rectangle 236" width="1.629" height="1.527" transform="translate(35.098 4.134)"/>
</svg>
