<svg xmlns="http://www.w3.org/2000/svg" viewBox="0 0 47.818 42.224">
  <g id="Group_541" data-name="Group 541" transform="translate(0)">
    <path id="Path_200" data-name="Path 200" d="M37.346,40.311h-34a1.409,1.409,0,0,1-1.435-1.435V3.347A1.439,1.439,0,0,1,3.347,1.913H46.862a.956.956,0,1,0,0-1.913H3.347A3.327,3.327,0,0,0,0,3.347V38.876a3.327,3.327,0,0,0,3.347,3.347h34a.956.956,0,0,0,0-1.913Z"/>
    <circle id="Ellipse_17" data-name="Ellipse 17" cx="0.717" cy="0.717" r="0.717" transform="translate(4.112 4.017)"/>
    <circle id="Ellipse_18" data-name="Ellipse 18" cx="0.717" cy="0.717" r="0.717" transform="translate(6.838 4.017)"/>
    <circle id="Ellipse_19" data-name="Ellipse 19" cx="0.717" cy="0.717" r="0.717" transform="translate(9.612 4.017)"/>
    <path id="Path_201" data-name="Path 201" d="M16.2,26.087a.924.924,0,0,0-1.339,0l-3.06,3.06-.574-.574a.947.947,0,0,0-1.339,1.339l1.243,1.243a1,1,0,0,0,.287.191.047.047,0,0,1,.048.048h.048a.709.709,0,0,0,.335.048h.191a1.5,1.5,0,0,0,.478-.239h0l3.73-3.73A1.147,1.147,0,0,0,16.2,26.087Z" transform="translate(-5.009 -13.463)"/>
    <path id="Path_202" data-name="Path 202" d="M16.2,43.087a.924.924,0,0,0-1.339,0l-3.06,3.06-.574-.574a.947.947,0,1,0-1.339,1.339l1.243,1.243a1,1,0,0,0,.287.191.047.047,0,0,1,.048.048h.048a.709.709,0,0,0,.335.048h.191a1.5,1.5,0,0,0,.478-.239h0l3.73-3.73A1.147,1.147,0,0,0,16.2,43.087Z" transform="translate(-5.009 -22.334)"/>
    <path id="Path_203" data-name="Path 203" d="M14.812,60.093l-3.06,3.06-.526-.574a.947.947,0,0,0-1.339,1.339l1.243,1.243a1,1,0,0,0,.287.191.047.047,0,0,1,.048.048h.048a.709.709,0,0,0,.335.048h.191a1.5,1.5,0,0,0,.478-.239h0l3.73-3.73a.924.924,0,0,0,0-1.339A1,1,0,0,0,14.812,60.093Z" transform="translate(-5.009 -31.211)"/>
    <path id="Path_204" data-name="Path 204" d="M29.256,27.713h5.4a.956.956,0,1,0,0-1.913h-5.4a.956.956,0,0,0,0,1.913Z" transform="translate(-14.767 -13.463)"/>
    <path id="Path_205" data-name="Path 205" d="M29.256,35.513h1.578a.956.956,0,1,0,0-1.913H29.256a.956.956,0,1,0,0,1.913Z" transform="translate(-14.767 -17.533)"/>
    <path id="Path_206" data-name="Path 206" d="M29.256,44.713h5.4a.956.956,0,1,0,0-1.913h-5.4a.956.956,0,1,0,0,1.913Z" transform="translate(-14.767 -22.334)"/>
    <path id="Path_207" data-name="Path 207" d="M29.256,52.513h3.491a.956.956,0,1,0,0-1.913H29.256a.956.956,0,1,0,0,1.913Z" transform="translate(-14.767 -26.404)"/>
    <path id="Path_208" data-name="Path 208" d="M29.256,61.713h5.4a.956.956,0,1,0,0-1.913h-5.4a.956.956,0,1,0,0,1.913Z" transform="translate(-14.767 -31.205)"/>
    <path id="Path_209" data-name="Path 209" d="M29.256,69.513h1.578a.956.956,0,1,0,0-1.913H29.256a.956.956,0,1,0,0,1.913Z" transform="translate(-14.767 -35.275)"/>
    <path id="Path_210" data-name="Path 210" d="M52.08,15.8H10.956a.956.956,0,1,0,0,1.913H51.124V47.121a1.439,1.439,0,0,1-1.435,1.435H48.3v-2.63a4.56,4.56,0,0,0-3.586-4.447l-3.491-.909V38.179a5.1,5.1,0,0,0,1.243-2.152c.1-.335.143-.574.191-.765A1.739,1.739,0,0,0,44,33.875l.287-1.865a1.837,1.837,0,0,0-.43-1.482,1.872,1.872,0,0,0-.478-.383v-.574a.94.94,0,0,0,.43-.813,6.533,6.533,0,0,0-2.2-4.782.908.908,0,0,0-.383-.717,6.616,6.616,0,0,0-3.969-1.339h-.622a5.617,5.617,0,0,0-3.2,1.2.86.86,0,0,0-.765.191,7.423,7.423,0,0,0-2.582,5.451.868.868,0,0,0,.287.669.66.66,0,0,0,.191.143v.574a1.8,1.8,0,0,0-.909,1.865l.287,1.865a1.679,1.679,0,0,0,1.339,1.387c.048.191.1.43.191.765a4.651,4.651,0,0,0,1.243,2.152V40.57l-3.491.909a4.512,4.512,0,0,0-3.586,4.447.956.956,0,0,0,1.913,0,2.614,2.614,0,0,1,2.1-2.582H29.7l4.208-1.1a.921.921,0,0,0,.717-.909V39.518l.1.048a4.878,4.878,0,0,0,4.591,0l.1-.048v1.817a.921.921,0,0,0,.717.909l4.208,1.1h.048a2.662,2.662,0,0,1,2.1,2.582v3.586a.959.959,0,0,0,.956.956h2.247a3.327,3.327,0,0,0,3.347-3.347V16.756A.959.959,0,0,0,52.08,15.8ZM39.169,37.366l-.813.43a2.86,2.86,0,0,1-2.773,0l-.813-.43A3.066,3.066,0,0,1,33.288,35.5a7.94,7.94,0,0,1-.335-1.339A.977.977,0,0,0,32,33.4h-.239l-.239-1.674a.919.919,0,0,0,.909-.956V28.711a1,1,0,0,0-.383-.765,5.692,5.692,0,0,1,1.148-2.63.762.762,0,0,0,.574-.191,5.328,5.328,0,0,1,2.821-1.339h.669A4.408,4.408,0,0,1,39.7,24.5a.873.873,0,0,0,.383.622,4.685,4.685,0,0,1,1.769,2.869.929.929,0,0,0-.383.765v2.008a.951.951,0,0,0,.909.956l-.239,1.626h-.239a1.019,1.019,0,0,0-.956.765c0,.048-.048.239-.335,1.387A2.844,2.844,0,0,1,39.169,37.366Z" transform="translate(-5.218 -8.245)"/>
  </g>
</svg>
