<?xml version="1.0" encoding="utf-8"?>
<!-- Generator: Adobe Illustrator 22.1.0, SVG Export Plug-In . SVG Version: 6.00 Build 0)  -->
<svg version="1.1" xmlns="http://www.w3.org/2000/svg" xmlns:xlink="http://www.w3.org/1999/xlink" x="0px" y="0px"
	 viewBox="0 0 512 512" style="enable-background:new 0 0 512 512;" xml:space="preserve">
<style type="text/css">
	.st0{display:none;}
	.st1{display:inline;fill:none;}
	.st2{display:inline;fill:#FD7FA9;}
	.st3{display:inline;}
</style>
<g id="Capa_1" class="st0">
	<path class="st1" d="M453.3,224.9c-5.4-5.5-13-8.9-21.3-8.9c-16.6,0-30,13.4-30,30c0,18.1,15.8,31.9,33.4,29.8l-13,15.7
		c-12.9,15.5-35,24.5-55.2,24.5c-18.1,0-38.4-7.2-51-19.9L296,276h10c16.6,0,30-13.4,30-30s-13.4-30-30-30h-15.4
		c4.9-8.4,6.8-18.7,4.2-29.6c-3.4-14.6-15.7-26.5-30.4-29.6c-25.8-5.3-48.5,14.3-48.5,39.1c0,7.3,1.9,14.1,5.4,20H206
		c-16.6,0-30,13.4-30,30s13.4,30,30,30h10l-20.1,20.1c-12.7,12.7-33,19.9-51,19.9c-20.4,0-42.5-9.2-55.2-24.5l-13-15.7
		c17.6,2,33.4-11.8,33.4-29.8c0-16.6-13.4-30-30-30c-8.3,0-15.9,3.4-21.3,8.9C49.1,207.3,30.5,196,10,196l66,220c0,7.3,0,59.1,0,66
		c0,11,8.9,20,20,20h320c11,0,20-9,20-20c0-6.9,0-58.7,0-66l66-220C481.5,196,462.9,207.3,453.3,224.9z"/>
	<path class="st2" d="M256,316c-16.6,0-30,13.4-30,30c0,16.6,13.4,30,30,30s30-13.4,30-30C286,329.4,272.6,316,256,316z M256,366
		c-11,0-20-9-20-20c0-11,9-20,20-20s20,9,20,20C276,357,267,366,256,366z"/>
	<path class="st3" d="M256,469c5.5,0,10-4.5,10-10s-4.5-10-10-10s-10,4.5-10,10S250.5,469,256,469z"/>
	<path class="st3" d="M246,10v66c0,5.5,4.5,10,10,10s10-4.5,10-10V10c0-5.5-4.5-10-10-10C250.5,0,246,4.5,246,10z"/>
	<path class="st3" d="M43.9,93.9c-3.9,3.9-3.9,10.2,0,14.1l56.5,56.5c3.9,3.9,10.2,3.9,14.1,0c3.9-3.9,3.9-10.2,0-14.1L58.1,93.9
		C54.2,90,47.8,90,43.9,93.9z"/>
	<path class="st3" d="M454,93.9l-56.6,56.6c-3.9,3.9-3.9,10.2,0,14.1c3.9,3.9,10.2,3.9,14.1,0l56.6-56.6c3.9-3.9,3.9-10.2,0-14.1
		C464.2,90,457.9,90,454,93.9z"/>
	<path class="st3" d="M502,186c-20.1,0-38.9,9.2-51.2,24.7c-5.7-3-12.1-4.7-18.8-4.7c-22.1,0-40,17.9-40,40
		c0,16.6,10.1,30.8,24.5,36.9l-1.8,2.2c-10.4,12.5-29.5,20.9-47.6,20.9c-15.3,0-33.1-6.1-43.9-17l-5-5c16.1-5.2,27.8-20.3,27.8-38.1
		c0-22.1-17.9-40-40-40h-1c1.4-7.1,1.3-14.5-0.4-21.8c-4.3-18.4-19.6-33.3-38.1-37.1c-31.8-6.5-60.5,17.5-60.5,48.9
		c0,3.4,0.3,6.7,1,10h-1c-22.1,0-40,17.9-40,40c0,17.8,11.7,32.9,27.8,38.1l-5,5c-10.3,10.3-27.6,17-43.9,17
		c-17.5,0-36.7-7.8-47.5-20.9l-1.8-2.2c14.4-6.1,24.5-20.3,24.5-36.9c0-22.1-17.9-40-40-40c-6.7,0-13.1,1.6-18.8,4.7
		C48.9,195.2,30.1,186,10,186c-3.2,0-6.1,1.5-8,4s-2.5,5.8-1.6,8.8L62.6,406H56c-5.5,0-10,4.5-10,10s4.5,10,10,10h10v56
		c0,16.5,13.5,30,30,30h320c16.5,0,30-13.5,30-30v-56h10c5.5,0,10-4.5,10-10s-4.5-10-10-10h-6.6l62.1-207.1c0.9-3,0.3-6.3-1.6-8.8
		C508.1,187.5,505.2,186,502,186z M426,449H296c-5.5,0-10,4.5-10,10s4.5,10,10,10h130v13c0,5.5-4.5,10-10,10H96c-5.5,0-10-4.5-10-10
		v-13h130c5.5,0,10-4.5,10-10s-4.5-10-10-10H86v-23h340V449z M428.6,406H83.4L24.1,208.2c10.9,3.5,20.2,11.1,25.8,21.4
		c3.2,5.9,11.2,7,15.9,2.2c3.8-3.8,8.8-5.9,14.2-5.9c11,0,20,9,20,20c0,12.1-10.6,21.2-22.2,19.9c-4.1-0.5-8,1.6-10,5.2
		c-1.9,3.6-1.5,8,1.1,11.2l13,15.7c14.8,17.9,39.8,28.1,62.9,28.1c21.8,0,44-8.7,58.1-22.8l20.1-20.1c2.9-2.9,3.7-7.2,2.2-10.9
		c-1.5-3.7-5.2-6.2-9.2-6.2h-10c-11,0-20-9-20-20s9-20,20-20h15.4c3.6,0,6.9-1.9,8.7-5c1.8-3.1,1.8-6.9,0-10c-2.6-4.5-4-9.7-4-15
		c0-18.5,16.8-33.4,36.5-29.3c10.9,2.2,20.2,11.3,22.7,22c2.3,9.9-0.4,17.6-3.2,22.3c-1.8,3.1-1.8,6.9,0,10c1.8,3.1,5.1,5,8.7,5H306
		c11,0,20,9,20,20s-9,20-20,20h-10c-4,0-7.7,2.4-9.2,6.2c-1.5,3.7-0.7,8,2.2,10.9l20.1,20.1c14.6,14.6,37.5,22.8,58.1,22.8
		c24,0,48.7-11,62.9-28.1l13-15.7c2.6-3.1,3-7.6,1.1-11.2c-2-3.6-5.9-5.6-10-5.2c-0.7,0.1-1.4,0.1-2.2,0.1c-11,0-20-9-20-20
		s9-20,20-20c5.4,0,10.4,2.1,14.2,5.9c2.2,2.2,5.4,3.3,8.5,2.9c3.1-0.4,5.9-2.3,7.4-5.1c5.6-10.3,15-17.9,25.8-21.4L428.6,406z"/>
	<path class="st3" d="M256,306c-22.1,0-40,17.9-40,40c0,22,17.9,40,40,40s40-18,40-40C296,323.9,278.1,306,256,306z M256,366
		c-11,0-20-9-20-20c0-11,9-20,20-20s20,9,20,20C276,357,267,366,256,366z"/>
</g>
<g id="Layer_2">
	<path d="M511.7,255.7c0-139.5-116.1-256-256-256c-139.5,0-256,116.1-256,256c0,139.5,116.1,256,256,256
		C395.1,511.7,511.7,395.4,511.7,255.7z M414.8,96.6c85.6,85.6,89.1,217.9,10.3,307.2l-75.5-75.5c32.3-8.4,56.2-37.7,56.2-72.6
		c0-36.2-25.8-66.5-60-73.5v-76.5c0-12.4-14.1-19.4-24-12l-116,87h-3.8l-94.4-94.4c41.5-36.6,93.6-56.6,148.1-56.6
		C315.1,29.7,371.6,53.5,414.8,96.6z M195.7,300.7h-45c-8.3,0-15-6.7-15-15v-60c0-8.3,6.7-15,15-15h38.8l6.2,6.2V300.7z
		 M225.7,203.2l90-67.5v158.8l-90-90V203.2z M345.7,213.3c17.5,6.2,30,22.9,30,42.4s-12.5,36.2-30,42.4V213.3z M225.7,247l90,90
		v38.8l-90-67.5V247z M96.6,414.8C10.9,329.2,7.5,197,86.3,107.6l73.1,73.1h-8.8c-24.8,0-45,20.2-45,45v60c0,24.8,20.2,45,45,45h55
		l116,87c9.9,7.4,24,0.3,24-12V367l58.1,58.1c-41.5,36.6-93.6,56.6-148.1,56.6C196.2,481.7,139.7,458,96.6,414.8z"/>
</g>
</svg>
