<svg xmlns="http://www.w3.org/2000/svg" xmlns:xlink="http://www.w3.org/1999/xlink" version="1.1" x="0px" y="0px" viewBox="0 0 480 600" style="enable-background:new 0 0 480 480;" xml:space="preserve"><g><path d="M348.3,150H390c5.5,0,10-4.5,10-10s-4.5-10-10-10h-41.7c-5.5,0-10,4.5-10,10S342.8,150,348.3,150z"/><path d="M90,150h158.3c5.5,0,10-4.5,10-10s-4.5-10-10-10H90c-5.5,0-10,4.5-10,10S84.5,150,90,150z"/><path d="M298.3,170c16.6,0,30-13.4,30-30s-13.4-30-30-30s-30,13.4-30,30S281.8,170,298.3,170L298.3,170z M298.3,130   c5.5,0,10,4.5,10,10s-4.5,10-10,10s-10-4.5-10-10S292.8,130,298.3,130z"/><path d="M390,330H240c-5.5,0-10,4.5-10,10s4.5,10,10,10h150c5.5,0,10-4.5,10-10S395.5,330,390,330z"/><path d="M190,310c-16.6,0-30,13.4-30,30s13.4,30,30,30s30-13.4,30-30S206.6,310,190,310L190,310z M190,350c-5.5,0-10-4.5-10-10   s4.5-10,10-10s10,4.5,10,10S195.5,350,190,350z"/><path d="M140,330H90c-5.5,0-10,4.5-10,10s4.5,10,10,10h50c5.5,0,10-4.5,10-10S145.5,330,140,330z"/><path d="M90,283.3h183.3c5.5,0,10-4.5,10-10s-4.5-10-10-10H90c-5.5,0-10,4.5-10,10S84.5,283.3,90,283.3z"/><path d="M353.3,273.3c0-16.6-13.4-30-30-30s-30,13.4-30,30s13.4,30,30,30S353.3,289.9,353.3,273.3L353.3,273.3z M313.3,273.3   c0-5.5,4.5-10,10-10s10,4.5,10,10s-4.5,10-10,10S313.3,278.9,313.3,273.3z"/><path d="M390,263.3h-16.7c-5.5,0-10,4.5-10,10s4.5,10,10,10H390c5.5,0,10-4.5,10-10S395.5,263.3,390,263.3z"/><path d="M90,216.7h66.7c5.5,0,10-4.5,10-10s-4.5-10-10-10H90c-5.5,0-10,4.5-10,10S84.5,216.7,90,216.7z"/><path d="M390,196.7H256.7c-5.5,0-10,4.5-10,10s4.5,10,10,10H390c5.5,0,10-4.5,10-10S395.5,196.7,390,196.7z"/><path d="M176.7,206.7c0,16.6,13.4,30,30,30s30-13.4,30-30s-13.4-30-30-30l0,0C190.1,176.7,176.7,190.1,176.7,206.7z M216.7,206.7   c0,5.5-4.5,10-10,10s-10-4.5-10-10s4.5-10,10-10S216.7,201.1,216.7,206.7z"/></g><text x="0" y="495" fill="#000000" font-size="5px" font-weight="bold" font-family="'Helvetica Neue', Helvetica, Arial-Unicode, Arial, Sans-serif">Created by Digithrust</text><text x="0" y="500" fill="#000000" font-size="5px" font-weight="bold" font-family="'Helvetica Neue', Helvetica, Arial-Unicode, Arial, Sans-serif">from the Noun Project</text></svg>